<svg width="1238" height="837" viewBox="0 0 1238 837" fill="none" xmlns="http://www.w3.org/2000/svg">
<path d="M1238 836.312V8.5072C1133.35 -31.6404 830 72.5072 962 274.507C1094 476.507 961.47 525.611 866 636.313C704.744 823.296 276 506.507 234 654.507C192 802.507 81.5826 622.698 0 836.312H1238Z" fill="url(#paint0_linear)"/>
<path opacity="0.7" d="M1180.53 717.995C1180.4 713.704 1150.3 710.11 1100.6 707.644C1093.23 707.287 1092.59 703.034 1099.79 702.243C1110.54 701.039 1116.39 699.815 1116.35 698.592C1116.18 693.247 1003.26 690.179 864.114 691.723C724.984 693.285 612.326 698.874 612.495 704.219C612.533 705.593 619.932 706.798 633.242 707.833C637.629 708.171 637.384 710.731 632.96 710.994C562.19 714.965 517.439 720.179 517.609 725.429C517.778 730.642 561.945 734.802 631.679 737.211C636.838 737.38 640.095 739.243 639.963 741.351C639.963 741.37 639.963 741.37 639.963 741.389C640.133 746.734 753.055 749.801 892.203 748.258C1031.33 746.696 1143.99 741.106 1143.82 735.762C1143.8 734.971 1141.26 734.218 1136.5 733.522C1128.82 732.412 1129.68 727.876 1137.65 727.067C1165.04 724.187 1180.65 721.101 1180.53 717.995Z" fill="#9FCBFF"/>
<path opacity="0.7" d="M839.206 723.51L714.046 728.817L756.839 707.588H826.969L839.206 723.51Z" fill="#9FCBFF"/>
<path d="M748.8 623.67C748.8 623.67 761.809 613.977 799.519 589.737C881.208 537.229 911.011 443.713 852.064 432.816C793.946 422.089 775.892 501.678 749.572 565.008C737.956 592.955 725.568 605.038 725.568 605.038L748.8 623.67Z" fill="#39B5A9"/>
<path opacity="0.54" d="M860.311 435.093C847.151 466.259 825.952 512.236 805.581 537.794C786.585 561.639 756.256 591.243 734.115 611.888L748.781 623.651C748.781 623.651 761.791 613.958 799.5 589.718C877.066 539.883 907.848 453.066 860.311 435.093Z" fill="#39B5A9"/>
<path d="M860.31 435.093C857.053 443.656 853.533 452.107 849.956 460.538C846.284 468.932 842.463 477.269 838.471 485.512C830.432 501.998 821.697 518.202 810.947 533.221C799.858 548.013 787.225 561.338 774.31 574.342C767.815 580.817 761.226 587.178 754.561 593.464C747.821 599.674 741.081 605.866 734.153 611.87C740.61 605.377 747.143 598.959 753.525 592.41C759.983 585.917 766.365 579.386 772.653 572.724C778.904 566.062 785.173 559.399 791.198 552.53C797.203 545.68 803.228 538.773 808.518 531.433C819.155 516.697 827.947 500.625 836.419 484.458C840.655 476.366 844.703 468.16 848.638 459.898C852.629 451.73 856.432 443.393 860.31 435.093Z" fill="#10665A"/>
<path d="M873.075 480.939C871.795 482.821 870.383 484.627 868.99 486.453C867.484 488.166 865.921 489.859 864.321 491.516C860.969 494.659 857.411 497.632 853.401 500.003C849.429 502.375 845.136 504.351 840.561 505.367C839.413 505.574 838.265 505.838 837.116 505.969C835.949 506.063 834.8 506.214 833.633 506.176C831.317 506.176 828.964 505.951 826.799 505.141C829.077 505.292 831.317 505.104 833.501 504.69C835.704 504.351 837.832 503.711 839.921 503.071C844.101 501.678 848.073 499.683 851.839 497.387C855.679 495.204 859.181 492.438 862.758 489.728L867.935 485.399C869.611 483.912 871.286 482.388 873.075 480.939Z" fill="#10665A"/>
<path d="M870.91 462.062C870.025 463.361 869.046 464.565 868.105 465.845C867.069 467.031 866.015 468.179 864.904 469.308C862.607 471.453 860.179 473.505 857.43 475.123C854.7 476.742 851.763 478.097 848.638 478.793C845.532 479.49 842.199 479.659 839.206 478.643C840.768 478.737 842.293 478.643 843.8 478.342C845.306 478.116 846.755 477.683 848.205 477.231C851.067 476.271 853.778 474.916 856.376 473.335C859.011 471.83 861.402 469.948 863.85 468.085L867.389 465.111C868.557 464.114 869.667 463.06 870.91 462.062Z" fill="#10665A"/>
<path d="M805.355 569.995C804.132 570.974 802.833 571.821 801.552 572.762C800.216 573.571 798.841 574.361 797.467 575.114C794.624 576.488 791.687 577.692 788.581 578.408C785.493 579.142 782.293 579.556 779.092 579.273C775.929 578.991 772.691 578.163 770.15 576.3C771.618 576.864 773.105 577.222 774.612 577.391C776.118 577.617 777.643 577.636 779.149 577.655C782.161 577.598 785.173 577.128 788.11 576.394C791.066 575.754 793.928 574.662 796.827 573.646L801.101 571.877C802.494 571.256 803.887 570.578 805.355 569.995Z" fill="#10665A"/>
<path d="M858.409 512.067C856.959 514.062 855.434 516.038 853.853 517.958C852.102 519.708 850.464 521.609 848.525 523.209C844.759 526.521 840.523 529.306 835.986 531.527C831.393 533.597 826.479 535.122 821.452 535.611C816.444 536.119 811.286 535.818 806.617 534.011C811.53 534.576 816.388 534.181 821.094 533.277C825.801 532.336 830.357 530.793 834.687 528.798C836.833 527.725 838.999 526.69 841.013 525.373C843.14 524.244 845.023 522.738 847.056 521.383C848.092 520.743 848.977 519.896 849.937 519.162L852.817 516.904C854.681 515.304 856.47 513.629 858.409 512.067Z" fill="#10665A"/>
<path d="M840.674 543.44C839.224 545.247 837.794 547.147 836.099 548.804C834.329 550.366 832.654 552.078 830.602 553.302C826.742 556.125 822.205 557.969 817.574 559.192C815.239 559.795 812.867 560.077 810.476 560.321L806.88 560.378C805.694 560.34 804.489 560.227 803.303 560.133C798.578 559.625 793.928 558.345 789.786 556.087C794.342 557.141 798.898 557.705 803.435 557.781C807.972 557.837 812.491 557.386 816.821 556.256C821.151 555.184 825.406 553.584 829.322 551.307C831.374 550.309 833.181 548.917 835.101 547.674C837.059 546.376 838.735 544.795 840.674 543.44Z" fill="#10665A"/>
<path d="M780.354 564.914C778.603 561.601 777.36 557.988 776.569 554.299C775.798 550.61 775.383 546.846 775.27 543.082C775.214 539.318 775.383 535.554 775.91 531.828C776.419 528.12 777.191 524.413 778.471 520.875C778.358 528.365 778.094 535.686 778.283 542.988C778.32 546.639 778.603 550.272 778.885 553.923C779.205 557.593 779.77 561.187 780.354 564.914Z" fill="#10665A"/>
<path d="M802.513 541.558C799.444 537.098 797.128 532.054 795.603 526.784C794.135 521.515 793.287 516.057 792.986 510.618C792.76 505.16 792.949 499.702 793.664 494.301C794.379 488.918 795.453 483.555 797.279 478.454C796.111 489.201 795.49 499.853 795.998 510.467C796.243 515.775 796.94 521.025 797.881 526.238C798.935 531.452 800.536 536.495 802.513 541.558Z" fill="#10665A"/>
<path d="M823.693 512.18C820.247 508.585 818.064 503.824 816.859 498.968C815.578 494.094 815.183 489.069 815.183 484.082C815.24 479.094 815.71 474.126 816.614 469.251C817.499 464.377 818.722 459.559 820.53 454.948C819.946 459.86 819.381 464.716 818.948 469.571C818.534 474.427 818.214 479.264 818.195 484.1C818.158 488.918 818.402 493.755 819.156 498.479C819.909 503.222 821.283 507.851 823.693 512.18Z" fill="#10665A"/>
<path d="M836.74 486.077C835.478 483.065 834.556 479.885 834.16 476.61C833.652 473.354 833.746 470.023 834.047 466.73C834.405 463.436 835.215 460.199 836.401 457.131C837.587 454.064 839.131 451.09 841.315 448.625C840.11 451.655 839.168 454.685 838.396 457.752C837.662 460.82 837.003 463.907 836.702 467.031C836.363 470.155 836.156 473.298 836.231 476.46C836.231 479.64 836.551 482.802 836.74 486.077Z" fill="#10665A"/>
<path d="M759.475 588.382C758.496 585.578 757.743 582.623 757.554 579.612C757.291 576.62 757.366 573.59 757.743 570.597C758.515 564.65 760.228 558.778 763.259 553.622C762.449 556.501 761.809 559.362 761.169 562.222C760.586 565.083 760.077 567.962 759.72 570.861C759.305 573.74 759.155 576.657 759.098 579.556C759.042 582.491 759.268 585.39 759.475 588.382Z" fill="#10665A"/>
<path d="M739.857 628.318C739.857 628.318 747.633 603.909 773.011 538.584C828.042 397.058 792.214 241.605 715.853 275.613C640.547 309.169 679.48 435.376 696.65 545.755C704.219 594.461 698.966 621.694 698.966 621.694L739.857 628.318Z" fill="#39B5A9"/>
<path opacity="0.54" d="M727.112 271.905C735.32 326.408 745.336 408.312 741.006 461.008C736.958 510.185 724.118 576.808 714.046 624.14L739.858 628.318C739.858 628.318 747.633 603.909 773.011 538.584C825.274 404.191 795.622 257.282 727.112 271.905Z" fill="#39B5A9"/>
<path d="M727.112 271.905C729.823 286.472 732.082 301.114 734.304 315.774C736.375 330.454 738.22 345.152 739.82 359.907C742.964 389.398 745.016 419.077 743.981 448.869C743.34 463.813 741.589 478.549 739.65 493.266C737.598 507.964 735.32 522.625 732.59 537.192C729.917 551.777 727.037 566.306 724.005 580.817C720.824 595.289 717.642 609.762 714.046 624.14C716.625 609.555 719.374 595.007 721.822 580.403C724.42 565.836 726.905 551.231 729.164 536.627C731.367 522.004 733.626 507.381 735.414 492.72C737.222 478.078 738.935 463.361 739.481 448.7C740.102 434.002 739.82 419.228 739.217 404.492C738.653 389.737 737.523 375.001 736.393 360.246C735.207 345.51 733.758 330.774 732.139 316.076C730.651 301.321 728.806 286.622 727.112 271.905Z" fill="#10665A"/>
<path d="M776.344 325.241C776.344 328.741 776.118 332.261 775.929 335.78C775.591 339.281 775.045 342.762 774.517 346.244C773.877 349.707 772.992 353.132 772.145 356.576C771.637 358.27 771.053 359.945 770.507 361.639L769.679 364.161L768.681 366.645C766.064 373.251 762.562 379.593 758.025 385.164C757.479 385.879 756.914 386.556 756.274 387.215L754.429 389.172C753.13 390.415 751.794 391.619 750.4 392.729C747.576 394.912 744.432 396.813 740.987 397.679C744.018 395.891 746.597 393.614 748.894 391.092C751.21 388.589 753.3 385.898 755.164 383.075C757.027 380.233 758.741 377.297 760.284 374.286L762.506 369.694C763.221 368.15 763.805 366.532 764.464 364.97L765.462 362.617L766.309 360.19C766.874 358.571 767.42 356.953 768.022 355.353C769.077 352.078 770.018 348.785 771.034 345.472C771.844 342.122 772.842 338.791 773.689 335.422C774.536 332.035 775.346 328.628 776.344 325.241Z" fill="#10665A"/>
<path d="M759.644 300.7C759.644 303.109 759.494 305.499 759.362 307.908C759.136 310.298 758.759 312.688 758.402 315.078C757.969 317.449 757.366 319.802 756.783 322.154L755.672 325.617C755.314 326.784 754.9 327.913 754.41 329.043C752.622 333.559 750.212 337.907 747.124 341.727C745.599 343.647 743.83 345.378 741.909 346.903C739.97 348.389 737.824 349.707 735.471 350.29C737.542 349.067 739.311 347.505 740.893 345.773C742.493 344.061 743.905 342.217 745.185 340.278C747.727 336.382 749.873 332.242 751.549 327.876C752.547 325.768 753.149 323.472 753.996 321.289L756.067 314.532L757.893 307.644C758.42 305.348 758.966 303.033 759.644 300.7Z" fill="#10665A"/>
<path d="M764.953 506.139C764.332 508.359 763.598 510.543 762.845 512.745C762.016 514.89 761.056 516.998 760.096 519.106C759.079 521.195 757.874 523.19 756.726 525.203L754.749 528.102L753.751 529.532L752.641 530.906C749.741 534.576 746.258 537.869 742.248 540.391C741.288 541.069 740.196 541.558 739.161 542.123C738.069 542.593 736.996 543.082 735.866 543.44C733.626 544.155 731.253 544.607 728.938 544.324C731.216 543.91 733.324 543.101 735.282 542.028C737.259 541.012 739.123 539.77 740.855 538.415C744.319 535.667 747.482 532.506 750.212 528.967C751.718 527.311 752.885 525.373 754.26 523.604L757.969 517.939L761.47 512.086C762.6 510.091 763.711 508.096 764.953 506.139Z" fill="#10665A"/>
<path d="M782.782 380.948C782.707 384.712 782.424 388.457 782.161 392.24C781.577 395.966 781.031 399.712 780.24 403.419C778.395 410.778 776.117 418.099 772.503 424.893C772.07 425.74 771.656 426.605 771.185 427.433L769.679 429.88C768.643 431.499 767.758 433.192 766.516 434.698C765.311 436.204 764.238 437.784 762.939 439.215C761.621 440.626 760.378 442.094 758.966 443.393C756.161 446.009 753.168 448.455 749.873 450.413C746.597 452.351 743.114 454.045 739.387 454.817C742.738 453.104 745.769 450.958 748.574 448.587C751.436 446.291 753.958 443.619 756.406 440.946C761.207 435.451 765.16 429.297 768.474 422.823C769.283 421.185 770.149 419.586 770.921 417.929C771.618 416.236 772.296 414.542 773.03 412.848C773.388 412.001 773.783 411.173 774.103 410.307L774.988 407.691C775.572 405.941 776.193 404.21 776.833 402.478L779.977 391.807C780.862 388.213 781.728 384.58 782.782 380.948Z" fill="#10665A"/>
<path d="M785.851 439.572C785.663 443.035 785.399 446.536 784.91 449.999L783.78 455.137L783.178 457.715C782.952 458.562 782.613 459.39 782.33 460.218C781.747 461.893 781.144 463.549 780.504 465.205C779.845 466.843 778.942 468.405 778.189 470.004L776.965 472.376C776.532 473.166 775.986 473.862 775.515 474.615C774.499 476.083 773.576 477.608 772.484 479.038C768.06 484.665 762.619 489.502 756.481 493.115C750.382 496.729 743.547 499.251 736.563 499.721C743.133 497.406 749.12 494.113 754.561 490.161C755.898 489.144 757.272 488.184 758.515 487.055C759.757 485.945 761.113 484.947 762.224 483.686C763.372 482.463 764.633 481.39 765.725 480.111L768.926 476.271C769.961 474.973 770.865 473.561 771.844 472.206C772.315 471.51 772.842 470.851 773.256 470.136L774.48 467.953C775.289 466.485 776.231 465.092 776.946 463.568C777.624 462.025 778.339 460.5 779.073 458.976C779.412 458.204 779.845 457.451 780.128 456.661L780.994 454.271L782.801 449.472C783.818 446.216 784.684 442.885 785.851 439.572Z" fill="#10665A"/>
<path d="M732.195 519.934C727.375 516.527 723.12 512.293 719.336 507.72C715.609 503.109 712.314 498.14 709.377 493.021C706.534 487.827 703.955 482.501 701.865 476.987C699.757 471.491 697.949 465.845 696.933 460.011C699.738 465.205 702.411 470.381 705.085 475.537C707.796 480.657 710.488 485.776 713.331 490.8C716.117 495.844 719.129 500.756 722.179 505.649C725.342 510.486 728.674 515.172 732.195 519.934Z" fill="#10665A"/>
<path d="M740.272 468.819C732.797 464.791 726.152 459.239 720.296 453.01C714.535 446.686 709.584 439.666 705.16 432.383C700.867 425.006 697.14 417.346 694.052 409.423C690.964 401.518 688.347 393.407 686.804 385.07C690.155 392.842 693.638 400.483 697.29 408.011C698.194 409.893 699.154 411.756 700.095 413.62C701.037 415.483 701.959 417.346 702.995 419.171C704.011 420.997 704.896 422.879 705.95 424.667L709.076 430.068C711.241 433.606 713.349 437.22 715.74 440.589C717.943 444.127 720.579 447.326 722.989 450.714C728.185 457.188 733.87 463.248 740.272 468.819Z" fill="#10665A"/>
<path d="M742.7 410.1C735.264 407.597 729.07 402.177 723.93 396.305C721.332 393.351 719.054 390.132 716.87 386.895C714.724 383.621 712.803 380.214 710.958 376.789C707.4 369.844 704.313 362.693 701.827 355.353C699.323 348.013 697.253 340.523 696.029 332.863C699.041 339.996 702.034 347.072 705.103 354.073C706.685 357.555 708.191 361.055 709.885 364.481C711.504 367.925 713.161 371.35 714.968 374.7C718.451 381.456 722.311 387.987 726.697 394.122C731.159 400.163 736.148 405.903 742.7 410.1Z" fill="#10665A"/>
<path d="M738.163 362.749C734.228 359.362 730.595 355.522 727.658 351.175C726.057 349.086 724.815 346.771 723.497 344.494C722.819 343.365 722.33 342.141 721.746 340.974C721.162 339.789 720.616 338.603 720.127 337.38C718.131 332.524 716.663 327.443 715.797 322.267C714.931 317.111 714.573 311.822 715.288 306.647C716.23 311.766 717.435 316.715 718.828 321.59C720.259 326.445 721.84 331.244 723.798 335.893C725.681 340.56 727.827 345.134 730.275 349.556C732.666 354.035 735.471 358.27 738.163 362.749Z" fill="#10665A"/>
<path d="M725.7 570.127C722.235 566.871 719.129 563.163 716.587 559.079C714.027 555.033 711.824 550.742 710.055 546.282C708.304 541.821 706.835 537.248 705.8 532.6C704.764 527.951 704.03 523.208 703.974 518.428C706.572 527.575 709.358 536.495 712.841 545.171C714.498 549.538 716.531 553.734 718.602 557.913C720.711 562.091 723.177 566.062 725.7 570.127Z" fill="#10665A"/>
<path d="M705.951 626.831C705.951 626.831 704.275 606.976 703.033 552.06C700.34 433.042 629.571 340.353 585.742 393.915C542.516 446.743 606.903 518.089 651.334 587.178C670.933 617.666 675.207 638.462 675.207 638.462L705.951 626.831Z" fill="#39B5A9"/>
<path opacity="0.54" d="M592.576 386.914C614.321 421.129 645.366 473.448 657.754 511.389C669.314 546.79 679.781 597.66 686.54 634.171L705.95 626.831C705.95 626.831 704.275 606.976 703.032 552.059C700.472 439.027 636.555 349.782 592.576 386.914Z" fill="#39B5A9"/>
<path d="M592.576 386.914C598.883 396.098 604.87 405.47 610.838 414.88C616.693 424.347 622.398 433.926 627.914 443.6C638.871 462.984 649.151 482.877 656.982 503.88C664.4 525.053 669.672 546.715 674.416 568.489C676.75 579.386 678.934 590.302 680.986 601.236C682.926 612.208 684.884 623.161 686.521 634.171C684.093 623.312 681.815 612.415 679.311 601.575C676.92 590.716 674.435 579.875 671.799 569.092C669.126 558.308 666.471 547.524 663.496 536.834C660.541 526.163 657.472 515.455 653.707 505.104C649.941 494.734 645.404 484.59 640.641 474.596C635.897 464.565 630.757 454.741 625.561 444.917C620.346 435.112 614.924 425.401 609.37 415.784C603.91 406.054 598.206 396.512 592.576 386.914Z" fill="#10665A"/>
<path d="M642.881 404.115C643.936 406.675 644.839 409.291 645.762 411.926C646.534 414.598 647.211 417.289 647.87 420C648.36 422.747 648.868 425.495 649.188 428.262C649.433 431.047 649.697 433.832 649.64 436.655C649.697 439.459 649.414 442.264 649.151 445.068L648.435 449.246C648.172 450.62 647.757 451.994 647.4 453.349C646.985 454.704 646.515 456.04 646.025 457.357C645.423 458.637 644.933 459.954 644.218 461.178C642.881 463.643 641.281 466.033 639.172 467.859C640.679 465.525 641.789 463.041 642.636 460.481C643.145 459.239 643.427 457.903 643.841 456.623C644.124 455.306 644.482 454.007 644.726 452.69C645.743 447.42 646.157 442.038 646.101 436.655C646.214 431.254 645.63 425.871 645.14 420.451C644.726 417.76 644.425 415.05 644.048 412.321C643.634 409.592 643.182 406.882 642.881 404.115Z" fill="#10665A"/>
<path d="M623.923 393.84C624.638 395.59 625.26 397.397 625.9 399.185C626.427 401.01 626.897 402.854 627.349 404.718C627.688 406.6 628.027 408.482 628.253 410.382C628.422 412.283 628.592 414.203 628.573 416.123C628.611 418.042 628.422 419.962 628.234 421.881L627.745 424.742C627.556 425.683 627.293 426.624 627.048 427.546C626.766 428.469 626.446 429.391 626.107 430.294C625.693 431.179 625.354 432.082 624.864 432.91C623.942 434.604 622.85 436.241 621.419 437.483C622.454 435.884 623.207 434.19 623.791 432.421C624.431 430.689 624.845 428.883 625.222 427.095C625.918 423.481 626.201 419.792 626.163 416.104C626.239 412.415 625.843 408.707 625.504 405L624.751 399.429C624.45 397.604 624.13 395.741 623.923 393.84Z" fill="#10665A"/>
<path d="M687.839 532.938C688.065 534.783 688.178 536.646 688.291 538.528C688.329 540.391 688.272 542.273 688.197 544.136C688.046 545.999 687.839 547.881 687.557 549.745C687.18 551.589 686.879 553.452 686.333 555.278C685.844 557.103 685.166 558.891 684.488 560.66C683.679 562.392 682.869 564.104 681.815 565.704C681.307 566.513 680.723 567.266 680.158 568.038C679.518 568.753 678.934 569.506 678.238 570.164C676.882 571.501 675.376 572.705 673.625 573.439C675.075 572.272 676.28 570.879 677.334 569.393C678.407 567.944 679.33 566.363 680.158 564.763C681.796 561.545 683.076 558.157 683.999 554.638C685.053 551.156 685.655 547.562 686.314 543.948L687.086 538.471C687.331 536.627 687.519 534.802 687.839 532.938Z" fill="#10665A"/>
<path d="M663.722 439.855C664.795 442.64 665.756 445.482 666.678 448.343C667.337 451.26 668.165 454.177 668.598 457.169C669.521 463.135 669.86 469.214 669.314 475.293C668.693 481.334 667.393 487.356 665.002 492.965C662.611 498.535 659.373 503.88 654.761 507.795C658.244 502.939 660.597 497.519 662.423 492.024C664.193 486.491 665.266 480.769 665.812 474.992L666.132 470.644C666.226 469.195 666.132 467.727 666.17 466.278C666.32 463.361 665.944 460.444 665.869 457.508C665.869 456.04 665.548 454.591 665.436 453.123L664.984 448.719C664.569 445.764 664.061 442.847 663.722 439.855Z" fill="#10665A"/>
<path d="M683.058 478.925C683.961 481.56 684.884 484.232 685.505 486.98C685.938 489.746 686.653 492.532 686.635 495.374C687.162 501.057 686.314 506.797 684.978 512.33C683.528 517.882 681.043 523.133 677.843 527.819C674.642 532.505 670.67 536.721 665.925 539.751C669.709 535.63 672.872 531.132 675.508 526.389C676.807 523.999 677.993 521.571 679.01 519.068L680.459 515.285L681.589 511.408C682.041 510.128 682.21 508.792 682.512 507.475C682.794 506.157 683.095 504.84 683.208 503.485L683.735 499.458L683.905 495.392L683.999 493.341C684.018 492.664 683.942 491.986 683.942 491.29L683.811 487.168C683.66 484.477 683.208 481.748 683.058 478.925Z" fill="#10665A"/>
<path d="M668.806 555.372C664.532 554.92 660.315 553.697 656.324 552.041C652.351 550.328 648.567 548.22 644.971 545.83C641.432 543.383 638.024 540.73 634.918 537.775C631.792 534.839 628.855 531.677 626.408 528.139C633.355 533.183 640.001 538.264 646.948 542.932C650.393 545.303 653.951 547.467 657.547 549.594C661.162 551.664 664.908 553.527 668.806 555.372Z" fill="#10665A"/>
<path d="M659.524 517.035C653.33 517.205 647.099 516.076 641.149 514.118C635.257 512.029 629.646 509.188 624.356 505.894C619.122 502.488 614.19 498.686 609.652 494.451C605.115 490.236 600.86 485.681 597.302 480.619C601.933 484.703 606.64 488.617 611.422 492.381C616.242 496.108 621.137 499.702 626.239 502.958C631.341 506.195 636.65 509.075 642.147 511.597C647.701 513.93 653.443 515.756 659.524 517.035Z" fill="#10665A"/>
<path d="M644.03 475.726C638.438 476.911 632.47 475.763 627.123 473.731C624.412 472.733 621.852 471.416 619.329 470.042C616.844 468.612 614.453 467.031 612.118 465.393C607.525 462.006 603.213 458.279 599.26 454.195C595.306 450.13 591.616 445.802 588.51 441.078C592.727 444.861 596.906 448.587 601.142 452.201C605.397 455.814 609.69 459.314 614.189 462.552C618.651 465.807 623.301 468.781 628.215 471.209C633.129 473.618 638.344 475.424 644.03 475.726Z" fill="#10665A"/>
<path d="M626.973 444.974C623.264 444.183 619.593 442.96 616.223 441.097C612.796 439.365 609.671 437.05 606.79 434.491C603.948 431.913 601.387 428.977 599.279 425.777C597.151 422.597 595.382 419.134 594.421 415.445C596.549 418.588 598.808 421.524 601.218 424.328C603.628 427.113 606.132 429.786 608.88 432.214C611.572 434.679 614.434 436.975 617.465 439.045C620.459 441.21 623.697 442.979 626.973 444.974Z" fill="#10665A"/>
<path d="M678.916 592.428C675.564 591.544 672.289 590.208 669.295 588.401C666.302 586.594 663.459 584.505 660.898 582.134C658.338 579.744 655.966 577.184 653.876 574.399C651.786 571.632 649.885 568.678 648.473 565.497C652.935 570.785 657.491 575.829 662.48 580.402C664.927 582.736 667.601 584.825 670.293 586.877C673.004 588.928 675.922 590.641 678.916 592.428Z" fill="#10665A"/>
<path d="M647.324 615.577L658.846 696.766C660.672 709.602 671.027 719.539 683.942 720.818L707.607 723.171C712.86 723.698 718.15 723.641 723.384 723.002L746.032 720.273C759.098 718.692 769.34 708.284 770.677 695.186L779.412 609.667L647.324 615.577Z" fill="#FF6000"/>
<path opacity="0.22" d="M767.495 610.194L738.803 687.827C733.908 701.057 720.504 709.131 706.534 707.268L682.304 704.05C676.694 703.297 671.196 701.942 665.869 700.004L658.997 697.482C661.105 709.959 671.291 719.539 683.961 720.781L707.626 723.133C712.879 723.66 718.169 723.604 723.403 722.964L746.051 720.235C759.117 718.654 769.359 708.247 770.695 695.148L779.431 609.63L767.495 610.194Z" fill="#FF6000"/>
<path opacity="0.51" d="M777.096 635.733L779.431 609.649L754.749 610.759C735.433 613.432 717.811 613.883 702.355 613.093L647.324 615.558L649.715 629.259C707.099 640.325 752.961 640.852 777.096 635.733Z" fill="#FF6000"/>
<path d="M646.929 599.373C668.881 605.791 720.108 616.273 785.004 600.163C790.351 598.846 795.509 602.874 795.566 608.388L795.66 616.48C795.697 620.376 793.118 623.783 789.372 624.818C771.185 629.843 715.609 641.85 642.637 626.229C638.532 625.345 635.577 621.75 635.52 617.553L635.407 608.068C635.351 602.045 641.13 597.679 646.929 599.373Z" fill="#FF6000"/>
<path opacity="0.22" d="M795.566 608.369C795.509 603.532 791.518 599.825 786.905 599.9C787.508 601.048 787.847 602.346 787.866 603.739L787.96 611.832C787.997 615.727 785.418 619.134 781.672 620.169C763.636 625.138 708.831 636.975 636.763 621.957C638.005 624.084 640.095 625.664 642.637 626.21C715.59 641.812 771.185 629.805 789.372 624.799C793.118 623.764 795.716 620.338 795.66 616.461L795.566 608.369Z" fill="#FF6000"/>
<path d="M958.962 396.644H972.837C972.837 396.644 982.119 433.682 998.329 446.404C1014.54 459.126 978.655 467.614 978.655 467.614L962.445 469.929C962.445 469.929 954.349 442.922 948.174 435.601C941.98 428.28 958.962 396.644 958.962 396.644Z" fill="#F9BBC1"/>
<path opacity="0.38" d="M958.962 396.644H972.837C972.837 396.644 982.119 433.682 998.329 446.404C1014.54 459.126 978.655 467.614 978.655 467.614L962.445 469.929C962.445 469.929 954.349 442.922 948.174 435.601C941.98 428.28 958.962 396.644 958.962 396.644Z" fill="#F9BBC1"/>
<path d="M972.864 410.865C975.921 385.384 962.222 362.788 942.266 360.395C922.31 358.002 903.654 376.719 900.597 402.199C897.539 427.68 911.238 450.276 931.194 452.669C951.15 455.061 969.806 436.345 972.864 410.865Z" fill="#F9BBC1"/>
<path opacity="0.38" d="M942.263 360.415C938.027 359.907 929.216 360.359 925.225 361.62C940.813 366.871 952.316 384.994 952.316 406.543C952.316 429.014 944.465 447.759 927.86 452.069C928.952 452.332 930.063 452.539 931.193 452.671C951.149 455.061 969.806 436.354 972.856 410.872C975.906 385.408 962.219 362.806 942.263 360.415Z" fill="#F9BBC1"/>
<path d="M993.02 609.611L842.199 624.291L775.026 495.317L925.112 485.211L993.02 609.611Z" fill="#2E78EC"/>
<path d="M999.364 609.046L848.544 623.726L781.37 494.771L931.457 484.665L999.364 609.046Z" fill="#9AC6FC"/>
<path opacity="0.71" d="M788.75 498.912L928.802 489.483L991.928 605.113L851.198 618.814L788.75 498.912Z" fill="#EAF7FF"/>
<path d="M1033.35 616.01H843.573V632.741H1033.35V616.01Z" fill="#2440E4"/>
<path d="M908.356 509.658L811.135 516.885L806.504 509.037L903.725 501.81L908.356 509.658Z" fill="#9AC6FC"/>
<path d="M938.46 523.698L819.607 532.148L814.976 524.3L933.828 515.831L938.46 523.698Z" fill="#9AC6FC"/>
<path d="M909.881 540.504L828.098 547.411L823.467 539.563L905.25 532.637L909.881 540.504Z" fill="#9AC6FC"/>
<path d="M955.423 554.224L836.57 562.693L831.939 554.826L950.791 546.357L955.423 554.224Z" fill="#9AC6FC"/>
<path d="M963.895 569.487L845.061 577.956L840.429 570.089L959.263 561.639L963.895 569.487Z" fill="#9AC6FC"/>
<path d="M972.367 584.75L853.533 593.219L848.901 585.371L967.735 576.902L972.367 584.75Z" fill="#9AC6FC"/>
<path d="M997.03 488.26C997.237 482.764 996.484 477.25 994.544 472.112C992.078 465.563 987.39 458.487 978.617 458.374C968.583 458.242 959.244 460.557 957.475 466.372C953.145 480.751 950.867 484.759 940.022 509.3C920.443 553.603 889.849 586.462 889.849 586.462L932.303 601.895C932.322 601.876 993.848 572.234 997.03 488.26Z" fill="#FF285A"/>
<path d="M741.42 665.243C741.42 665.243 713.688 693.624 693.619 699.909C673.531 706.177 624.205 720.837 641.77 729.137C659.336 737.437 690.494 731.169 723.422 727.763C744.527 725.58 734.228 711.691 748.122 693.172C750.193 690.424 741.42 665.243 741.42 665.243Z" fill="#F9BBC1"/>
<path d="M983.267 632.722H796.996V725.486H983.267V632.722Z" fill="#090083"/>
<path d="M882.469 550.497C877.311 549.048 871.776 550.366 867.822 553.979C855.585 565.139 832.221 589.662 850.05 600.333C919.991 642.226 939.815 665.243 982.213 665.243C1051.97 665.224 1082.6 642.207 1087.25 607.691L882.469 550.497Z" fill="black"/>
<path d="M889.868 609.592C889.868 609.592 871.926 604.116 862.852 627.34C850.501 658.976 834.838 663.267 795.697 681.353C754.937 700.192 742.436 707.588 742.436 707.588L713.104 687.526C713.104 687.526 843.046 544.287 874.411 549.688C920.556 557.611 889.868 609.592 889.868 609.592Z" fill="black"/>
<path opacity="0.11" d="M1054.3 598.489C1043 614.278 1021.62 626.662 983.267 632.722C948.645 638.199 917.28 622.446 866.73 600.276C858.597 596.719 855.19 601.255 853.213 609.912C853.194 609.988 857.468 639.008 789.089 673.938C756.538 690.575 745.637 704.163 741.834 707.155L742.456 707.588C742.456 707.588 754.956 700.192 795.716 681.353C834.857 663.267 850.521 658.976 862.871 627.34C865.412 620.847 868.651 616.593 871.983 613.846C924.754 647.157 944.635 665.262 982.213 665.262C1051.97 665.243 1082.6 642.226 1087.25 607.71L1054.3 598.489Z" fill="#26255B"/>
<path d="M988.671 433.287C988.671 433.287 978.956 451.994 957.381 459.22C957.381 459.22 954.707 479.188 961.654 508.51C968.601 537.832 973.12 575.641 973.12 575.641C973.12 575.641 990.214 619.623 1050.42 615.765C1110.63 611.907 1096.74 587.215 1096.74 587.215C1096.74 587.215 1073.13 511.032 1049.65 479.96C1023.41 445.256 999.477 426.737 988.671 433.287Z" fill="#FF285A"/>
<path d="M955.799 388.476C952.712 387.592 949.473 387.479 946.423 388.457C936.05 391.732 911.387 398.187 891.807 392.823C866.335 385.841 863.643 376.394 863.643 376.394C863.643 376.394 874.054 381.212 881.396 381.212C881.396 381.212 866.354 373.119 863.643 364.236C863.643 364.236 875.993 371.482 889.887 370.164C889.887 370.164 878.704 369.637 876.388 364.236C876.388 364.236 890.659 367.322 909.184 361.921C909.184 361.921 889.115 361.545 886.423 357.687C886.423 357.687 908.412 358.458 921.93 353.057C935.447 347.655 964.911 346.112 974.682 365.403C983.512 382.868 970.032 392.56 955.799 388.476Z" fill="#03004D"/>
<path opacity="0.22" d="M986.28 665.902C1055.88 662.062 1085.21 637.408 1087.98 602.723C1103.7 593.275 1096.34 581.701 1096.34 581.701C1096.34 581.701 1087.66 555.108 1071.11 523.171C1044.25 528.61 1033.33 553.264 1026.93 573.834C1019.98 596.136 1024.16 624.347 943.505 615.991C924.02 613.977 906.078 618.814 896.646 633.832C934.826 655.833 954.594 667.652 986.28 665.902Z" fill="#26255B"/>
<path d="M950.076 371.952L934.713 383.451C934.713 383.451 961.918 383.451 963.198 401.255C964.027 412.904 970.145 427.866 991.758 428.638C991.758 428.638 984.623 421.693 983.851 419.19C983.851 419.19 990.61 423.632 997.162 421.882C997.162 421.882 985.395 415.125 982.891 408.576C982.891 408.576 987.334 413.205 992.53 413.205C992.53 413.205 980.952 403.57 980.368 399.505C980.368 399.505 984.416 402.403 988.859 400.276C988.859 400.276 984.623 399.091 981.912 394.386C979.22 389.662 979.822 377.843 975.944 368.32C972.065 358.797 959.904 360.735 959.904 360.735L950.076 371.952Z" fill="#03004D"/>
<path d="M1029.58 584.9C1029.58 584.9 1043.55 513.892 1098.28 531.659C1163.76 552.906 1210 696.898 1115.26 718.372C1066.63 729.4 935.429 727.443 896.872 725.787C887.703 725.392 878.817 722.475 871.305 717.224C863.153 711.54 854.775 702.77 854.38 690.594C853.608 666.673 869.818 633.494 941.604 635.037C1013.37 636.599 1029.58 584.9 1029.58 584.9Z" fill="#2440E4"/>
<path opacity="0.33" d="M1138.38 562.147C1134.43 557.122 1128.87 553.509 1122.62 552.21C1122.58 552.21 1122.55 552.191 1122.53 552.191C1066.16 540.655 1060.21 612.773 1060.21 612.773C1060.21 612.773 1049.88 665.958 978.372 672.432C917.845 677.928 899.677 703.673 897.606 725.825C937.067 727.481 1066.93 729.344 1115.26 718.391C1188.53 701.754 1177.46 611.851 1138.38 562.147Z" fill="#2440E4"/>
<path opacity="0.57" d="M997.161 499.966C996.992 498.592 996.785 497.425 996.521 496.409C993.886 527.142 983.305 550.065 971.463 566.532C971.463 566.532 973.082 575.509 974.287 578.257C975.756 581.607 982.439 590.208 982.439 590.208C982.439 590.208 1002.53 544.776 997.161 499.966Z" fill="#DA1C5C"/>
<path opacity="0.39" d="M982.872 408.595C982.872 408.595 987.315 413.224 992.511 413.224C992.511 413.224 980.933 403.588 980.349 399.523C980.349 399.523 984.397 402.422 988.84 400.295C988.84 400.295 984.604 399.109 981.893 394.404C979.276 389.85 979.747 378.671 976.301 369.336C975.868 368.056 975.323 366.739 974.626 365.384C969.279 354.826 958.04 350.516 946.744 349.65C946.913 350.159 947.666 350.723 949.229 351.363C961.466 356.275 966.719 381.249 961.673 395.571C962.483 397.227 963.029 399.109 963.179 401.255C964.008 412.904 970.126 427.866 991.739 428.638C991.739 428.638 984.604 421.693 983.832 419.19C983.832 419.19 990.591 423.632 997.143 421.882C997.161 421.9 985.395 415.163 982.872 408.595Z" fill="#03004D"/>
<path d="M953.163 392.823C953.163 392.823 954.971 381.72 960.374 383.79C965.777 385.841 967.905 392.541 965.947 399.994C963.989 407.447 955.234 403.344 955.234 403.344" fill="#F9BBC1"/>
<path opacity="0.38" d="M953.163 392.823C953.163 392.823 954.971 381.72 960.374 383.79C965.777 385.841 967.905 392.541 965.947 399.994C963.989 407.447 955.234 403.344 955.234 403.344" fill="#F9BBC1"/>
<path d="M702.524 695.769C659.599 707.588 625.881 721.647 641.77 729.137C659.336 737.437 690.494 731.169 723.422 727.763C738.483 726.201 737.542 718.673 740.836 707.757C734.134 708.397 718.79 707.588 702.524 695.769Z" fill="#03004D"/>
<defs>
<linearGradient id="paint0_linear" x1="-443.515" y1="-461.896" x2="557.542" y2="690.868" gradientUnits="userSpaceOnUse">
<stop stop-color="#110EB5" stop-opacity="0.48"/>
<stop offset="1" stop-color="#26255B"/>
</linearGradient>
</defs>
</svg>
